<?xml version="1.0" standalone="no"?>
<!DOCTYPE svg PUBLIC "-//W3C//DTD SVG 20010904//EN"
 "http://www.w3.org/TR/2001/REC-SVG-20010904/DTD/svg10.dtd">
<svg version="1.0" xmlns="http://www.w3.org/2000/svg"
 width="512.000000pt" height="512.000000pt" viewBox="0 0 512.000000 512.000000"
 preserveAspectRatio="xMidYMid meet">

<g transform="translate(0.000000,512.000000) scale(0.100000,-0.100000)"
fill="#000000" stroke="none">
<path d="M229 4916 c-99 -40 -157 -95 -202 -193 l-22 -48 0 -2115 0 -2115 26
-55 c39 -82 90 -135 167 -172 l67 -33 1402 -3 1402 -2 57 21 c81 31 174 123
203 202 19 52 21 79 21 267 l0 209 -842 3 -843 3 -66 23 c-86 29 -177 90 -232
155 -60 71 -82 110 -106 191 -20 66 -21 85 -21 775 0 766 -1 753 56 869 38 77
143 181 225 220 124 62 122 62 1017 62 l812 0 0 175 0 175 -453 0 c-505 0
-531 3 -622 65 -58 40 -98 87 -128 153 -22 46 -22 56 -25 620 l-3 572 -917 0
-917 0 -56 -24z"/>
<path d="M2302 4375 l3 -560 23 -33 c13 -18 41 -41 63 -52 37 -19 57 -20 498
-18 l460 3 -510 595 c-281 327 -517 602 -525 610 -13 13 -14 -52 -12 -545z"/>
<path d="M1654 2981 c-95 -32 -165 -97 -212 -198 l-27 -58 0 -695 0 -695 31
-65 c49 -101 121 -163 224 -194 48 -14 217 -16 1594 -16 1604 0 1591 0 1666
40 80 43 152 133 175 221 12 44 15 170 15 709 0 681 -2 706 -43 786 -27 52
-105 124 -165 152 l-57 27 -1575 2 c-1477 2 -1578 1 -1626 -16z m782 -365 c77
-34 144 -102 181 -181 l28 -60 3 -482 3 -483 -90 0 -91 0 0 265 0 265 -265 0
-265 0 0 -265 0 -265 -85 0 -86 0 3 493 3 492 34 63 c53 98 135 159 244 182
23 5 105 8 182 6 128 -2 145 -5 201 -30z m995 20 c142 -33 242 -139 268 -282
27 -146 -52 -304 -186 -372 -61 -32 -144 -42 -335 -42 l-178 0 0 -265 0 -266
-87 3 -88 3 -3 605 c-1 333 0 611 3 618 7 18 528 17 606 -2z m1045 3 c278 -51
384 -390 185 -590 -91 -91 -131 -102 -388 -107 l-213 -4 0 -264 0 -265 -87 3
-88 3 -3 605 c-1 333 0 611 3 618 6 16 503 17 591 1z"/>
<path d="M2033 2449 c-71 -35 -87 -73 -92 -211 l-3 -118 267 0 267 0 -4 123
c-3 116 -5 126 -30 159 -44 58 -78 68 -230 68 -115 0 -139 -3 -175 -21z"/>
<path d="M3000 2295 l0 -175 198 0 c185 0 201 1 242 23 115 58 118 241 5 304
-38 21 -52 23 -242 23 l-203 0 0 -175z"/>
<path d="M4060 2295 l0 -175 198 0 c185 0 201 1 242 23 118 59 118 245 0 305
-41 21 -57 22 -242 22 l-198 0 0 -175z"/>
</g>
</svg>
