<svg width="20" height="27" viewBox="0 0 20 27" fill="none" xmlns="http://www.w3.org/2000/svg">
<g opacity="0.5">
<path fill-rule="evenodd" clip-rule="evenodd" d="M1.82052 12.8938C2.33234 12.2424 3.27532 12.1293 3.92673 12.6411L17.9267 23.6411C18.5781 24.1529 18.6913 25.0959 18.1795 25.7473C17.6677 26.3987 16.7247 26.5119 16.0733 26L2.07327 15C1.42186 14.4882 1.3087 13.5452 1.82052 12.8938Z" fill="white"/>
<path fill-rule="evenodd" clip-rule="evenodd" d="M1.72847 14.6062C1.21662 13.9548 1.32973 13.0119 1.98111 12.5L15.9806 1.49932C16.632 0.987471 17.575 1.10058 18.0868 1.75197C18.5987 2.40335 18.4855 3.34634 17.8342 3.85819L3.83469 14.8589C3.18331 15.3707 2.24032 15.2576 1.72847 14.6062Z" fill="white"/>
</g>
</svg>
