<svg width="133" height="70" viewBox="0 0 133 70" fill="none" xmlns="http://www.w3.org/2000/svg">
<path d="M43.584 41.4C43.584 43.16 43.152 44.776 42.288 46.248C41.424 47.688 40.256 48.84 38.784 49.704C37.344 50.568 35.744 51 33.984 51H11.232V46.2H33.984C35.296 46.2 36.416 45.736 37.344 44.808C38.304 43.848 38.784 42.712 38.784 41.4C38.784 40.088 38.304 38.968 37.344 38.04C36.416 37.08 35.296 36.6 33.984 36.6H11.232V31.8H29.184C30.496 31.8 31.616 31.336 32.544 30.408C33.504 29.448 33.984 28.312 33.984 27C33.984 25.688 33.504 24.568 32.544 23.64C31.616 22.68 30.496 22.2 29.184 22.2H8.832V51H4.032V17.4H29.184C30.944 17.4 32.544 17.832 33.984 18.696C35.456 19.56 36.624 20.728 37.488 22.2C38.352 23.64 38.784 25.24 38.784 27C38.784 27.992 38.64 28.952 38.352 29.88C38.064 30.776 37.664 31.608 37.152 32.376C39.04 33.016 40.576 34.168 41.76 35.832C42.976 37.464 43.584 39.32 43.584 41.4ZM109.411 51H104.612V34.2C104.612 31.992 104.068 29.976 102.98 28.152C101.924 26.328 100.484 24.888 98.6595 23.832C96.8355 22.744 94.8195 22.2 92.6115 22.2H90.0195V51H85.2195V17.4H92.6115C95.6515 17.4 98.4355 18.152 100.964 19.656C103.524 21.16 105.54 23.128 107.012 25.56C108.484 23.128 110.484 21.16 113.012 19.656C115.572 18.152 118.372 17.4 121.412 17.4H128.804V51H124.004V22.2H121.412C119.204 22.2 117.188 22.744 115.364 23.832C113.572 24.888 112.132 26.328 111.044 28.152C109.956 29.976 109.411 31.992 109.411 34.2V51Z" fill="white"/>
<path fill-rule="evenodd" clip-rule="evenodd" d="M79.7095 39.1932V66.8065C79.7095 68.5702 78.2792 69.9999 76.5161 69.9999H49.4839C47.7208 69.9999 46.2905 68.5701 46.2905 66.8065V39.1932C46.2905 37.4299 47.7208 36 49.4839 36H76.5161C78.2792 36.0005 79.7095 37.4303 79.7095 39.1932ZM73.1841 39.5623C74.8575 39.5623 76.2193 40.9246 76.2193 42.5977L76.2194 63.4035C76.2194 65.0769 74.8571 66.4388 73.1842 66.4388H52.8167C51.1424 66.4388 49.7807 65.0764 49.7807 63.4035V42.5977C49.7807 40.9241 51.143 39.5623 52.8167 39.5623H73.1841ZM74.9601 63.4035V42.5977C74.9601 41.6183 74.1633 40.821 73.1842 40.8215H52.8167C51.8367 40.8215 51.0399 41.6183 51.0399 42.5977V63.4035C51.0399 64.3827 51.8367 65.1795 52.8167 65.1795H73.1842C74.1633 65.1795 74.9601 64.3827 74.9601 63.4035ZM67.08 56.4H65.6228V53.4857H57.4774V52.0285H65.6228V47.6571H60.3917C59.7311 47.6571 59.124 47.8222 58.5703 48.1525C58.0166 48.4731 57.5746 48.9102 57.2443 49.464C56.9237 50.0177 56.7634 50.6297 56.7634 51.3V56.4H55.3063V51.3C55.3063 50.6005 55.4374 49.9448 55.6997 49.3328C55.962 48.7111 56.3263 48.1671 56.7926 47.7008C57.2588 47.2248 57.798 46.8557 58.41 46.5934C59.0317 46.3311 59.6923 46.2 60.3917 46.2H67.08V56.4ZM65.65 60.7C65.291 60.7 65 60.991 65 61.35C65 61.709 65.291 62 65.65 62H71.6357C71.9947 62 72.2857 61.709 72.2857 61.35C72.2857 60.991 71.9947 60.7 71.6357 60.7H65.65Z" fill="white"/>
<path fill-rule="evenodd" clip-rule="evenodd" d="M79.7095 30.8065V3.19321C79.7095 1.43032 78.2792 0.000500489 76.5161 0H49.4839C47.7208 0 46.2905 1.4299 46.2905 3.19321V30.8065C46.2905 32.5701 47.7208 33.9999 49.4839 33.9999H76.5161C78.2792 33.9999 79.7095 32.5702 79.7095 30.8065ZM76.2193 6.5977C76.2193 4.92457 74.8575 3.56232 73.1841 3.56232H52.8167C51.143 3.56232 49.7807 4.92415 49.7807 6.5977V27.4035C49.7807 29.0764 51.1424 30.4388 52.8167 30.4388H73.1842C74.8571 30.4388 76.2194 29.0769 76.2194 27.4035L76.2193 6.5977ZM74.9601 6.5977V27.4035C74.9601 28.3827 74.1633 29.1795 73.1842 29.1795H52.8167C51.8367 29.1795 51.0399 28.3827 51.0399 27.4035V6.5977C51.0399 5.61833 51.8367 4.82155 52.8167 4.82155H73.1842C74.1633 4.82105 74.9601 5.61833 74.9601 6.5977ZM58.26 20H59.76V9.5H58.26V20Z" fill="white"/>
</svg>
