<svg width="67" height="67" viewBox="0 0 67 67" fill="none" xmlns="http://www.w3.org/2000/svg">
<path d="M16.8154 5.06424C12.8896 5.61385 8.5582 9.1078 7.09258 12.9027C5.75781 16.3967 6.33359 19.2101 9.08164 22.4816C10.9529 24.7193 11.6203 26.2896 11.4895 28.1347C11.3193 30.3986 9.50039 32.2699 7.01406 32.7279C6.01953 32.9111 5.1166 32.7803 4.23984 32.3222L3.54629 31.9428L2.74804 32.8064C1.98906 33.6439 1.96289 33.6832 2.18535 33.9187C2.56484 34.3506 4.20058 35.0441 5.15586 35.2012C8.84609 35.79 12.8111 33.1597 13.7402 29.5219C14.473 26.6168 13.4916 23.7771 10.6127 20.4795C9.19941 18.8699 8.6498 17.2865 8.91152 15.5199C9.38261 12.1176 12.6934 8.6367 16.3312 7.7076C18.5689 7.13182 20.4402 7.66834 21.3301 9.13397C21.5133 9.43495 21.7096 9.68358 21.775 9.68358C21.8273 9.68358 22.3115 9.43495 22.848 9.13397L23.8033 8.59745L23.607 8.23104C23.2537 7.5244 21.8797 6.20272 21.0814 5.77088C19.8645 5.12967 18.2811 4.86795 16.8154 5.06424Z" fill="#6328B1"/>
<path d="M23.9865 11.2932C19.7205 13.7533 16.2266 15.8078 16.2266 15.8732C16.2266 15.9256 16.9332 17.1949 17.81 18.7129L19.3803 21.4478L20.715 20.0607C24.3268 16.3182 28.9068 13.6879 33.801 12.5625C35.0441 12.2746 35.0703 12.2615 34.9002 11.9867C34.8086 11.8428 34.0889 10.6127 33.3168 9.25175C32.5447 7.9039 31.8643 6.80468 31.825 6.80468C31.7727 6.81777 28.2395 8.833 23.9865 11.2932Z" fill="#6328B1"/>
<path d="M37.8838 14.3553C33.3822 14.8787 29.993 16.0695 26.6299 18.2811C21.0814 21.9451 17.4566 27.3889 16.0826 34.1281C15.7424 35.8293 15.6115 39.284 15.834 41.2338C16.3967 46.3896 18.6736 51.323 22.2592 55.1441C27.1926 60.4178 34.5861 63.2967 41.731 62.7078C49.8443 62.0535 56.9631 57.565 60.9935 50.5641C67.3795 39.4803 63.9641 25.2559 53.2336 18.2287C49.2816 15.6377 44.4398 14.2244 39.7551 14.2768C38.9437 14.2898 38.1062 14.3291 37.8838 14.3553Z" fill="#6328B1"/>
</svg>
