<svg width="34" height="34" viewBox="0 0 34 34" fill="none" xmlns="http://www.w3.org/2000/svg">
<g clip-path="url(#clip0_4_37)">
<path fill-rule="evenodd" clip-rule="evenodd" d="M28.9601 27.4035V6.5977C28.9601 5.61833 28.1633 4.82105 27.1842 4.82155L6.81665 4.82155C5.83669 4.82155 5.03991 5.61833 5.03991 6.5977L5.03991 27.4035C5.03991 28.3827 5.83669 29.1795 6.81665 29.1795H27.1842C28.1633 29.1795 28.9601 28.3827 28.9601 27.4035Z" fill="black"/>
<path fill-rule="evenodd" clip-rule="evenodd" d="M33.7095 3.19321V30.8065C33.7095 32.5702 32.2792 33.9999 30.5161 33.9999H3.48389C1.72075 33.9999 0.290436 32.5701 0.290436 30.8065L0.290436 3.19321C0.290436 1.4299 1.72075 0 3.48389 0L30.5161 0C32.2792 0.000500489 33.7095 1.43032 33.7095 3.19321ZM27.1841 3.56232C28.8575 3.56232 30.2193 4.92457 30.2193 6.5977L30.2194 27.4035C30.2194 29.0769 28.857 30.4388 27.1842 30.4388H6.81665C5.14243 30.4388 3.78068 29.0764 3.78068 27.4035L3.78068 6.5977C3.78068 4.92415 5.14301 3.56232 6.81665 3.56232L27.1841 3.56232Z" fill="black"/>
<path d="M20.62 16C20.62 16.55 20.485 17.055 20.215 17.515C19.945 17.965 19.58 18.325 19.12 18.595C18.67 18.865 18.17 19 17.62 19H10.51V17.5H17.62C18.03 17.5 18.38 17.355 18.67 17.065C18.97 16.765 19.12 16.41 19.12 16C19.12 15.59 18.97 15.24 18.67 14.95C18.38 14.65 18.03 14.5 17.62 14.5H10.51V13H16.12C16.53 13 16.88 12.855 17.17 12.565C17.47 12.265 17.62 11.91 17.62 11.5C17.62 11.09 17.47 10.74 17.17 10.45C16.88 10.15 16.53 10 16.12 10H9.76001V19H8.26001V8.5H16.12C16.67 8.5 17.17 8.635 17.62 8.905C18.08 9.175 18.445 9.54 18.715 10C18.985 10.45 19.12 10.95 19.12 11.5C19.12 11.81 19.075 12.11 18.985 12.4C18.895 12.68 18.77 12.94 18.61 13.18C19.2 13.38 19.68 13.74 20.05 14.26C20.43 14.77 20.62 15.35 20.62 16Z" fill="white"/>
<path fill-rule="evenodd" clip-rule="evenodd" d="M15 23.8716C15 23.3902 15.3902 23 15.8716 23H24.9113C25.3926 23 25.7829 23.3902 25.7829 23.8716C25.7829 24.3529 25.3926 24.7431 24.9113 24.7431H15.8716C15.3902 24.7431 15 24.3529 15 23.8716Z" fill="white"/>
</g>
<defs>
<clipPath id="clip0_4_37">
<rect width="34" height="34" fill="white"/>
</clipPath>
</defs>
</svg>
