<svg width="75" height="75" viewBox="0 0 75 75" fill="none" xmlns="http://www.w3.org/2000/svg">
<path d="M67.3296 30.6818H65.6051C65.4623 25.0634 63.6293 19.6185 60.3454 15.0575C57.0614 10.4964 52.479 7.03113 47.196 5.11367H61.4847C61.6921 5.91707 62.1854 6.61724 62.8722 7.08293C63.5589 7.54862 64.3919 7.74787 65.2151 7.64331C66.0382 7.53876 66.795 7.13759 67.3435 6.515C67.892 5.89241 68.1946 5.09114 68.1946 4.26139C68.1946 3.43164 67.892 2.63038 67.3435 2.00779C66.795 1.3852 66.0382 0.984027 65.2151 0.879475C64.3919 0.774923 63.5589 0.974166 62.8722 1.43986C62.1854 1.90555 61.6921 2.60572 61.4847 3.40912H40.9091V1.70458C40.9091 1.47854 40.8193 1.26176 40.6595 1.10193C40.4996 0.942096 40.2829 0.852303 40.0568 0.852303H34.9432C34.7172 0.852303 34.5004 0.942096 34.3405 1.10193C34.1807 1.26176 34.0909 1.47854 34.0909 1.70458V3.40912H13.5153C13.3079 2.60572 12.8146 1.90555 12.1278 1.43986C11.4411 0.974166 10.6081 0.774923 9.78495 0.879475C8.96181 0.984027 8.20506 1.3852 7.65655 2.00779C7.10804 2.63038 6.80542 3.43164 6.80542 4.26139C6.80542 5.09114 7.10804 5.89241 7.65655 6.515C8.20506 7.13759 8.96181 7.53876 9.78495 7.64331C10.6081 7.74787 11.4411 7.54862 12.1278 7.08293C12.8146 6.61724 13.3079 5.91707 13.5153 5.11367H27.8039C22.5208 7.03113 17.9384 10.4964 14.6545 15.0575C11.3705 19.6185 9.53759 25.0634 9.39478 30.6818H7.67046C7.44443 30.6818 7.22765 30.7716 7.06781 30.9315C6.90798 31.0913 6.81819 31.3081 6.81819 31.5341V36.6478C6.81819 36.8738 6.90798 37.0906 7.06781 37.2504C7.22765 37.4102 7.44443 37.5 7.67046 37.5H12.7841C13.0101 37.5 13.2269 37.4102 13.3867 37.2504C13.5466 37.0906 13.6364 36.8738 13.6364 36.6478V31.5341C13.6364 31.3081 13.5466 31.0913 13.3867 30.9315C13.2269 30.7716 13.0101 30.6818 12.7841 30.6818H11.0995C11.2705 24.4069 13.6834 18.4007 17.9011 13.7515C22.1188 9.10227 27.8622 6.11748 34.0909 5.3379V6.81821C34.0909 7.04425 34.1807 7.26103 34.3405 7.42086C34.5004 7.58069 34.7172 7.67048 34.9432 7.67048H40.0568C40.2829 7.67048 40.4996 7.58069 40.6595 7.42086C40.8193 7.26103 40.9091 7.04425 40.9091 6.81821V5.3379C47.1378 6.11748 52.8812 9.10227 57.0989 13.7515C61.3166 18.4007 63.7295 24.4069 63.9005 30.6818H62.2159C61.9899 30.6818 61.7731 30.7716 61.6133 30.9315C61.4534 31.0913 61.3636 31.3081 61.3636 31.5341V36.6478C61.3636 36.8738 61.4534 37.0906 61.6133 37.2504C61.7731 37.4102 61.9899 37.5 62.2159 37.5H67.3296C67.5556 37.5 67.7724 37.4102 67.9322 37.2504C68.092 37.0906 68.1818 36.8738 68.1818 36.6478V31.5341C68.1818 31.3081 68.092 31.0913 67.9322 30.9315C67.7724 30.7716 67.5556 30.6818 67.3296 30.6818Z" fill="black"/>
<path d="M39.9669 11.5506C39.8811 11.3788 39.7397 11.2411 39.5658 11.1597C39.3919 11.0783 39.1956 11.058 39.0087 11.1022C38.8218 11.1463 38.6553 11.2522 38.5362 11.4028C38.417 11.5534 38.3522 11.7398 38.3523 11.9318V39.554C38.3523 39.7189 38.4002 39.8804 38.4902 40.0186C38.5802 40.1569 38.7083 40.2661 38.8591 40.333C39.5778 40.6454 40.1669 41.1958 40.5272 41.8917C40.8876 42.5875 40.9972 43.3863 40.8377 44.1535C40.6782 44.9207 40.2592 45.6095 39.6513 46.104C39.0433 46.5985 38.2836 46.8685 37.5 46.8685C36.7164 46.8685 35.9567 46.5985 35.3488 46.104C34.7409 45.6095 34.3219 44.9207 34.1623 44.1535C34.0028 43.3863 34.1124 42.5875 34.4728 41.8917C34.8331 41.1958 35.4222 40.6454 36.1409 40.333C36.2917 40.2661 36.4199 40.1569 36.5098 40.0186C36.5998 39.8804 36.6477 39.7189 36.6477 39.554V11.9318C36.6478 11.7398 36.583 11.5534 36.4638 11.4028C36.3447 11.2522 36.1782 11.1463 35.9913 11.1022C35.8044 11.058 35.6081 11.0783 35.4342 11.1597C35.2603 11.2411 35.119 11.3788 35.0331 11.5506L18.8399 43.937C18.7808 44.0553 18.75 44.1859 18.75 44.3182C18.75 44.4505 18.7808 44.581 18.8399 44.6994L25.0413 57.1023H49.9587L56.1601 44.6994C56.2192 44.581 56.25 44.4505 56.25 44.3182C56.25 44.1859 56.2192 44.0553 56.1601 43.937L39.9669 11.5506Z" fill="black"/>
<path d="M51.9887 58.8069H23.0114C22.5407 58.8069 22.1591 59.1885 22.1591 59.6592V64.7728C22.1591 65.2435 22.5407 65.6251 23.0114 65.6251H51.9887C52.4594 65.6251 52.8409 65.2435 52.8409 64.7728V59.6592C52.8409 59.1885 52.4594 58.8069 51.9887 58.8069Z" fill="black"/>
<path d="M24.7159 73.2955C24.7159 73.5215 24.8057 73.7383 24.9656 73.8981C25.1254 74.058 25.3422 74.1478 25.5682 74.1478H49.4319C49.6579 74.1478 49.8747 74.058 50.0345 73.8981C50.1943 73.7383 50.2841 73.5215 50.2841 73.2955V67.3296H24.7159V73.2955Z" fill="black"/>
</svg>
