<svg width="40" height="40" viewBox="0 0 40 40" fill="none" xmlns="http://www.w3.org/2000/svg">
<g clip-path="url(#clip0_6_942)">
<path d="M39.82 31.8817L39.621 31.2818C39.1494 29.8803 37.6038 28.4185 36.1839 28.0334L30.9288 26.5978C29.5037 26.2101 27.4708 26.7315 26.4281 27.7741L24.5262 29.676C17.6141 27.8083 12.194 22.388 10.3288 15.4773L12.2308 13.5753C13.2735 12.5326 13.7948 10.5024 13.407 9.07727L11.9741 3.81954C11.5863 2.39702 10.1219 0.851449 8.72305 0.385103L8.12316 0.183408C6.72161 -0.282939 4.72276 0.188689 3.68017 1.23128L0.835144 4.07891C0.326883 4.58448 0.00204143 6.03055 0.00204143 6.03583C-0.0974648 15.0685 3.44435 23.7711 9.83371 30.1605C16.2074 36.5342 24.8773 40.0708 33.8838 39.9949C33.9309 39.9949 35.4189 39.6752 35.9272 39.1696L38.7722 36.3245C39.8148 35.282 40.2863 33.2833 39.82 31.8817Z" fill="black"/>
</g>
<defs>
<clipPath id="clip0_6_942">
<rect width="40" height="40" fill="white"/>
</clipPath>
</defs>
</svg>
