<?xml version="1.0" encoding="utf-8"?>
<!DOCTYPE svg PUBLIC "-//W3C//DTD SVG 1.1//EN" "http://www.w3.org/Graphics/SVG/1.1/DTD/svg11.dtd">
<svg version="1.1" id="Layer_1" xmlns="http://www.w3.org/2000/svg" xmlns:xlink="http://www.w3.org/1999/xlink" x="0px" y="0px"
width="348px" height="348px" viewBox="0 0 348 348" enable-background="new 0 0 348 348" xml:space="preserve">
<rect x="0" y="0" width="348" height="348" fill="rgb(255,255,255)" /><g transform="translate(24,24)"><g transform="translate(156,0) scale(0.024,0.024)"><g transform="" style="fill: rgb(42, 17, 75);">
<g>
	<path d="M0,500h500V0C223.861,0.001,0,223.854,0,500z"/>
</g>
</g></g><g transform="translate(168,0) scale(0.12,0.12)"><g transform="" style="fill: rgb(42, 17, 75);">
<rect width="100" height="100"/>
</g></g><g transform="translate(180,0) scale(0.024,0.024)"><g transform="" style="fill: rgb(42, 17, 75);">
<g>
	<path d="M0,0v500h500C500,223.853,276.142,0,0,0z"/>
</g>
</g></g><g transform="translate(96,12) scale(0.024,0.024)"><g transform="" style="fill: rgb(42, 17, 75);">
<path d="M250,0c58.27,0,250,0,250,0s0,170.182,0,250c0,62.305,0,250,0,250s-174.219,0-250,0
	C111.881,500,0,388.021,0,250C0,111.963,111.881,0,250,0z"/>
</g></g><g transform="translate(108,12) scale(0.024,0.024)"><g transform="" style="fill: rgb(42, 17, 75);">
<path d="M250,500c-58.271,0-250,0-250,0s0-170.207,0-250C0,187.676,0,0,0,0s174.261,0,250,0c138.064,0,250,111.929,250,250
	C500,388.064,388.064,500,250,500z"/>
</g></g><g transform="translate(144,12) scale(0.024,0.024)"><g transform="" style="fill: rgb(42, 17, 75);">
<g>
	<path d="M0,500h500V0C223.861,0.001,0,223.854,0,500z"/>
</g>
</g></g><g transform="translate(156,12) scale(0.12,0.12)"><g transform="" style="fill: rgb(42, 17, 75);">
<rect width="100" height="100"/>
</g></g><g transform="translate(168,12) scale(0.12,0.12)"><g transform="" style="fill: rgb(42, 17, 75);">
<rect width="100" height="100"/>
</g></g><g transform="translate(180,12) scale(0.12,0.12)"><g transform="" style="fill: rgb(42, 17, 75);">
<rect width="100" height="100"/>
</g></g><g transform="translate(192,12) scale(0.024,0.024)"><g transform="" style="fill: rgb(42, 17, 75);">
<path d="M250,500c-58.271,0-250,0-250,0s0-170.207,0-250C0,187.676,0,0,0,0s174.261,0,250,0c138.064,0,250,111.929,250,250
	C500,388.064,388.064,500,250,500z"/>
</g></g><g transform="translate(120,24) scale(0.024,0.024)"><g transform="" style="fill: rgb(42, 17, 75);">
<g>
	<path d="M0,500h500V0C223.861,0.001,0,223.854,0,500z"/>
</g>
</g></g><g transform="translate(132,24) scale(0.12,0.12)"><g transform="" style="fill: rgb(42, 17, 75);">
<rect width="100" height="100"/>
</g></g><g transform="translate(144,24) scale(0.024,0.024)"><g transform="" style="fill: rgb(42, 17, 75);">
<g>
	<path d="M500,0H0v500C276.142,500,500,276.142,500,0z"/>
</g>
</g></g><g transform="translate(180,24) scale(0.024,0.024)"><g transform="" style="fill: rgb(42, 17, 75);">
<path d="M0,250C0,191.729,0,0,0,0s170.201,0,250,0c62.324,0,250,0,250,0s0,174.261,0,250c0,138.064-111.936,250-250,250
	C111.929,500,0,388.064,0,250z"/>
</g></g><g transform="translate(120,36) scale(0.12,0.12)"><g transform="" style="fill: rgb(42, 17, 75);">
<rect width="100" height="100"/>
</g></g><g transform="translate(96,48) scale(0.024,0.024)"><g transform="" style="fill: rgb(42, 17, 75);">
<path d="M250,0c138.077,0,250,111.93,250,250c0,138.077-111.923,250-250,250C111.93,500,0,388.077,0,250C0,111.93,111.93,0,250,0z"
	/>
</g></g><g transform="translate(120,48) scale(0.12,0.12)"><g transform="" style="fill: rgb(42, 17, 75);">
<rect width="100" height="100"/>
</g></g><g transform="translate(144,48) scale(0.024,0.024)"><g transform="" style="fill: rgb(42, 17, 75);">
<path d="M250,0c58.27,0,250,0,250,0s0,170.182,0,250c0,62.305,0,250,0,250s-174.219,0-250,0
	C111.881,500,0,388.021,0,250C0,111.963,111.881,0,250,0z"/>
</g></g><g transform="translate(156,48) scale(0.12,0.12)"><g transform="" style="fill: rgb(42, 17, 75);">
<rect width="100" height="100"/>
</g></g><g transform="translate(168,48) scale(0.12,0.12)"><g transform="" style="fill: rgb(42, 17, 75);">
<rect width="100" height="100"/>
</g></g><g transform="translate(180,48) scale(0.024,0.024)"><g transform="" style="fill: rgb(42, 17, 75);">
<g>
	<path d="M0,0v500h500C500,223.853,276.142,0,0,0z"/>
</g>
</g></g><g transform="translate(120,60) scale(0.12,0.12)"><g transform="" style="fill: rgb(42, 17, 75);">
<rect width="100" height="100"/>
</g></g><g transform="translate(168,60) scale(0.12,0.12)"><g transform="" style="fill: rgb(42, 17, 75);">
<rect width="100" height="100"/>
</g></g><g transform="translate(180,60) scale(0.12,0.12)"><g transform="" style="fill: rgb(42, 17, 75);">
<rect width="100" height="100"/>
</g></g><g transform="translate(192,60) scale(0.024,0.024)"><g transform="" style="fill: rgb(42, 17, 75);">
<g>
	<path d="M0,0v500h500C500,223.853,276.142,0,0,0z"/>
</g>
</g></g><g transform="translate(96,72) scale(0.024,0.024)"><g transform="" style="fill: rgb(42, 17, 75);">
<path d="M250,0c138.077,0,250,111.93,250,250c0,138.077-111.923,250-250,250C111.93,500,0,388.077,0,250C0,111.93,111.93,0,250,0z"
	/>
</g></g><g transform="translate(120,72) scale(0.12,0.12)"><g transform="" style="fill: rgb(42, 17, 75);">
<rect width="100" height="100"/>
</g></g><g transform="translate(144,72) scale(0.024,0.024)"><g transform="" style="fill: rgb(42, 17, 75);">
<path d="M250,0c138.077,0,250,111.93,250,250c0,138.077-111.923,250-250,250C111.93,500,0,388.077,0,250C0,111.93,111.93,0,250,0z"
	/>
</g></g><g transform="translate(168,72) scale(0.12,0.12)"><g transform="" style="fill: rgb(42, 17, 75);">
<rect width="100" height="100"/>
</g></g><g transform="translate(192,72) scale(0.024,0.024)"><g transform="" style="fill: rgb(42, 17, 75);">
<path d="M0,250C0,191.729,0,0,0,0s170.201,0,250,0c62.324,0,250,0,250,0s0,174.261,0,250c0,138.064-111.936,250-250,250
	C111.929,500,0,388.064,0,250z"/>
</g></g><g transform="translate(120,84) scale(0.12,0.12)"><g transform="" style="fill: rgb(42, 17, 75);">
<rect width="100" height="100"/>
</g></g><g transform="translate(132,84) scale(0.024,0.024)"><g transform="" style="fill: rgb(42, 17, 75);">
<g>
	<path d="M0,0v500h500C500,223.853,276.142,0,0,0z"/>
</g>
</g></g><g transform="translate(156,84) scale(0.024,0.024)"><g transform="" style="fill: rgb(42, 17, 75);">
<path d="M250,0c58.27,0,250,0,250,0s0,170.182,0,250c0,62.305,0,250,0,250s-174.219,0-250,0
	C111.881,500,0,388.021,0,250C0,111.963,111.881,0,250,0z"/>
</g></g><g transform="translate(168,84) scale(0.024,0.024)"><g transform="" style="fill: rgb(42, 17, 75);">
<g>
	<path d="M500,0H0v500C276.142,500,500,276.142,500,0z"/>
</g>
</g></g><g transform="translate(0,96) scale(0.024,0.024)"><g transform="" style="fill: rgb(42, 17, 75);">
<path d="M500,250c0,58.266,0,250,0,250s-170.194,0-250-0.012c-62.324,0.012-250,0-250,0s0-174.241,0-249.994
	C0.006,111.931,111.929,0,249.994,0C388.064,0,500,111.93,500,250z"/>
</g></g><g transform="translate(24,96) scale(0.024,0.024)"><g transform="" style="fill: rgb(42, 17, 75);">
<path d="M250,0c138.077,0,250,111.93,250,250c0,138.077-111.923,250-250,250C111.93,500,0,388.077,0,250C0,111.93,111.93,0,250,0z"
	/>
</g></g><g transform="translate(48,96) scale(0.024,0.024)"><g transform="" style="fill: rgb(42, 17, 75);">
<path d="M500,250c0,58.266,0,250,0,250s-170.194,0-250-0.012c-62.324,0.012-250,0-250,0s0-174.241,0-249.994
	C0.006,111.931,111.929,0,249.994,0C388.064,0,500,111.93,500,250z"/>
</g></g><g transform="translate(72,96) scale(0.024,0.024)"><g transform="" style="fill: rgb(42, 17, 75);">
<path d="M250,0c138.077,0,250,111.93,250,250c0,138.077-111.923,250-250,250C111.93,500,0,388.077,0,250C0,111.93,111.93,0,250,0z"
	/>
</g></g><g transform="translate(120,96) scale(0.12,0.12)"><g transform="" style="fill: rgb(42, 17, 75);">
<rect width="100" height="100"/>
</g></g><g transform="translate(132,96) scale(0.024,0.024)"><g transform="" style="fill: rgb(42, 17, 75);">
<g>
	<path d="M500,0H0v500C276.142,500,500,276.142,500,0z"/>
</g>
</g></g><g transform="translate(192,96) scale(0.024,0.024)"><g transform="" style="fill: rgb(42, 17, 75);">
<path d="M500,250c0,58.266,0,250,0,250s-170.194,0-250-0.012c-62.324,0.012-250,0-250,0s0-174.241,0-249.994
	C0.006,111.931,111.929,0,249.994,0C388.064,0,500,111.93,500,250z"/>
</g></g><g transform="translate(240,96) scale(0.024,0.024)"><g transform="" style="fill: rgb(42, 17, 75);">
<path d="M250,0c138.077,0,250,111.93,250,250c0,138.077-111.923,250-250,250C111.93,500,0,388.077,0,250C0,111.93,111.93,0,250,0z"
	/>
</g></g><g transform="translate(276,96) scale(0.024,0.024)"><g transform="" style="fill: rgb(42, 17, 75);">
<path d="M250,0c138.077,0,250,111.93,250,250c0,138.077-111.923,250-250,250C111.93,500,0,388.077,0,250C0,111.93,111.93,0,250,0z"
	/>
</g></g><g transform="translate(0,108) scale(0.12,0.12)"><g transform="" style="fill: rgb(42, 17, 75);">
<rect width="100" height="100"/>
</g></g><g transform="translate(36,108) scale(0.024,0.024)"><g transform="" style="fill: rgb(42, 17, 75);">
<path d="M250,0c58.27,0,250,0,250,0s0,170.182,0,250c0,62.305,0,250,0,250s-174.219,0-250,0
	C111.881,500,0,388.021,0,250C0,111.963,111.881,0,250,0z"/>
</g></g><g transform="translate(48,108) scale(0.12,0.12)"><g transform="" style="fill: rgb(42, 17, 75);">
<rect width="100" height="100"/>
</g></g><g transform="translate(60,108) scale(0.024,0.024)"><g transform="" style="fill: rgb(42, 17, 75);">
<path d="M250,500c-58.271,0-250,0-250,0s0-170.207,0-250C0,187.676,0,0,0,0s174.261,0,250,0c138.064,0,250,111.929,250,250
	C500,388.064,388.064,500,250,500z"/>
</g></g><g transform="translate(84,108) scale(0.024,0.024)"><g transform="" style="fill: rgb(42, 17, 75);">
<path d="M250,0c58.27,0,250,0,250,0s0,170.182,0,250c0,62.305,0,250,0,250s-174.219,0-250,0
	C111.881,500,0,388.021,0,250C0,111.963,111.881,0,250,0z"/>
</g></g><g transform="translate(96,108) scale(0.12,0.12)"><g transform="" style="fill: rgb(42, 17, 75);">
<rect width="100" height="100"/>
</g></g><g transform="translate(108,108) scale(0.12,0.12)"><g transform="" style="fill: rgb(42, 17, 75);">
<rect width="100" height="100"/>
</g></g><g transform="translate(120,108) scale(0.024,0.024)"><g transform="" style="fill: rgb(42, 17, 75);">
<g>
	<path d="M500,0H0v500C276.142,500,500,276.142,500,0z"/>
</g>
</g></g><g transform="translate(192,108) scale(0.12,0.12)"><g transform="" style="fill: rgb(42, 17, 75);">
<rect width="100" height="100"/>
</g></g><g transform="translate(204,108) scale(0.12,0.12)"><g transform="" style="fill: rgb(42, 17, 75);">
<rect width="100" height="100"/>
</g></g><g transform="translate(216,108) scale(0.024,0.024)"><g transform="" style="fill: rgb(42, 17, 75);">
<path d="M250,500c-58.271,0-250,0-250,0s0-170.207,0-250C0,187.676,0,0,0,0s174.261,0,250,0c138.064,0,250,111.929,250,250
	C500,388.064,388.064,500,250,500z"/>
</g></g><g transform="translate(288,108) scale(0.024,0.024)"><g transform="" style="fill: rgb(42, 17, 75);">
<path d="M500,250c0,58.266,0,250,0,250s-170.194,0-250-0.012c-62.324,0.012-250,0-250,0s0-174.241,0-249.994
	C0.006,111.931,111.929,0,249.994,0C388.064,0,500,111.93,500,250z"/>
</g></g><g transform="translate(0,120) scale(0.024,0.024)"><g transform="" style="fill: rgb(42, 17, 75);">
<path d="M0,250C0,191.729,0,0,0,0s170.201,0,250,0c62.324,0,250,0,250,0s0,174.261,0,250c0,138.064-111.936,250-250,250
	C111.929,500,0,388.064,0,250z"/>
</g></g><g transform="translate(24,120) scale(0.024,0.024)"><g transform="" style="fill: rgb(42, 17, 75);">
<path d="M500,250c0,58.266,0,250,0,250s-170.194,0-250-0.012c-62.324,0.012-250,0-250,0s0-174.241,0-249.994
	C0.006,111.931,111.929,0,249.994,0C388.064,0,500,111.93,500,250z"/>
</g></g><g transform="translate(48,120) scale(0.12,0.12)"><g transform="" style="fill: rgb(42, 17, 75);">
<rect width="100" height="100"/>
</g></g><g transform="translate(72,120) scale(0.024,0.024)"><g transform="" style="fill: rgb(42, 17, 75);">
<path d="M250,0c138.077,0,250,111.93,250,250c0,138.077-111.923,250-250,250C111.93,500,0,388.077,0,250C0,111.93,111.93,0,250,0z"
	/>
</g></g><g transform="translate(192,120) scale(0.12,0.12)"><g transform="" style="fill: rgb(42, 17, 75);">
<rect width="100" height="100"/>
</g></g><g transform="translate(228,120) scale(0.024,0.024)"><g transform="" style="fill: rgb(42, 17, 75);">
<path d="M250,0c138.077,0,250,111.93,250,250c0,138.077-111.923,250-250,250C111.93,500,0,388.077,0,250C0,111.93,111.93,0,250,0z"
	/>
</g></g><g transform="translate(264,120) scale(0.024,0.024)"><g transform="" style="fill: rgb(42, 17, 75);">
<path d="M250,0c58.27,0,250,0,250,0s0,170.182,0,250c0,62.305,0,250,0,250s-174.219,0-250,0
	C111.881,500,0,388.021,0,250C0,111.963,111.881,0,250,0z"/>
</g></g><g transform="translate(276,120) scale(0.12,0.12)"><g transform="" style="fill: rgb(42, 17, 75);">
<rect width="100" height="100"/>
</g></g><g transform="translate(288,120) scale(0.024,0.024)"><g transform="" style="fill: rgb(42, 17, 75);">
<g>
	<path d="M500,0H0v500C276.142,500,500,276.142,500,0z"/>
</g>
</g></g><g transform="translate(24,132) scale(0.12,0.12)"><g transform="" style="fill: rgb(42, 17, 75);">
<rect width="100" height="100"/>
</g></g><g transform="translate(36,132) scale(0.12,0.12)"><g transform="" style="fill: rgb(42, 17, 75);">
<rect width="100" height="100"/>
</g></g><g transform="translate(48,132) scale(0.12,0.12)"><g transform="" style="fill: rgb(42, 17, 75);">
<rect width="100" height="100"/>
</g></g><g transform="translate(96,132) scale(0.024,0.024)"><g transform="" style="fill: rgb(42, 17, 75);">
<path d="M250,0c138.077,0,250,111.93,250,250c0,138.077-111.923,250-250,250C111.93,500,0,388.077,0,250C0,111.93,111.93,0,250,0z"
	/>
</g></g><g transform="translate(132,132) scale(0.024,0.024)"><g transform="" style="fill: rgb(42, 17, 75);">
<g>
	<path d="M0,500h500V0C223.861,0.001,0,223.854,0,500z"/>
</g>
</g></g><g transform="translate(144,132) scale(0.12,0.12)"><g transform="" style="fill: rgb(42, 17, 75);">
<rect width="100" height="100"/>
</g></g><g transform="translate(156,132) scale(0.12,0.12)"><g transform="" style="fill: rgb(42, 17, 75);">
<rect width="100" height="100"/>
</g></g><g transform="translate(168,132) scale(0.024,0.024)"><g transform="" style="fill: rgb(42, 17, 75);">
<path d="M250,500c-58.271,0-250,0-250,0s0-170.207,0-250C0,187.676,0,0,0,0s174.261,0,250,0c138.064,0,250,111.929,250,250
	C500,388.064,388.064,500,250,500z"/>
</g></g><g transform="translate(192,132) scale(0.12,0.12)"><g transform="" style="fill: rgb(42, 17, 75);">
<rect width="100" height="100"/>
</g></g><g transform="translate(276,132) scale(0.12,0.12)"><g transform="" style="fill: rgb(42, 17, 75);">
<rect width="100" height="100"/>
</g></g><g transform="translate(24,144) scale(0.12,0.12)"><g transform="" style="fill: rgb(42, 17, 75);">
<rect width="100" height="100"/>
</g></g><g transform="translate(36,144) scale(0.12,0.12)"><g transform="" style="fill: rgb(42, 17, 75);">
<rect width="100" height="100"/>
</g></g><g transform="translate(48,144) scale(0.12,0.12)"><g transform="" style="fill: rgb(42, 17, 75);">
<rect width="100" height="100"/>
</g></g><g transform="translate(72,144) scale(0.024,0.024)"><g transform="" style="fill: rgb(42, 17, 75);">
<path d="M250,0c58.27,0,250,0,250,0s0,170.182,0,250c0,62.305,0,250,0,250s-174.219,0-250,0
	C111.881,500,0,388.021,0,250C0,111.963,111.881,0,250,0z"/>
</g></g><g transform="translate(84,144) scale(0.024,0.024)"><g transform="" style="fill: rgb(42, 17, 75);">
<g>
	<path d="M0,0v500h500C500,223.853,276.142,0,0,0z"/>
</g>
</g></g><g transform="translate(120,144) scale(0.024,0.024)"><g transform="" style="fill: rgb(42, 17, 75);">
<g>
	<path d="M0,500h500V0C223.861,0.001,0,223.854,0,500z"/>
</g>
</g></g><g transform="translate(132,144) scale(0.12,0.12)"><g transform="" style="fill: rgb(42, 17, 75);">
<rect width="100" height="100"/>
</g></g><g transform="translate(144,144) scale(0.12,0.12)"><g transform="" style="fill: rgb(42, 17, 75);">
<rect width="100" height="100"/>
</g></g><g transform="translate(156,144) scale(0.024,0.024)"><g transform="" style="fill: rgb(42, 17, 75);">
<g>
	<path d="M500,0H0v500C276.142,500,500,276.142,500,0z"/>
</g>
</g></g><g transform="translate(180,144) scale(0.024,0.024)"><g transform="" style="fill: rgb(42, 17, 75);">
<path d="M250,0c58.27,0,250,0,250,0s0,170.182,0,250c0,62.305,0,250,0,250s-174.219,0-250,0
	C111.881,500,0,388.021,0,250C0,111.963,111.881,0,250,0z"/>
</g></g><g transform="translate(192,144) scale(0.12,0.12)"><g transform="" style="fill: rgb(42, 17, 75);">
<rect width="100" height="100"/>
</g></g><g transform="translate(204,144) scale(0.12,0.12)"><g transform="" style="fill: rgb(42, 17, 75);">
<rect width="100" height="100"/>
</g></g><g transform="translate(216,144) scale(0.024,0.024)"><g transform="" style="fill: rgb(42, 17, 75);">
<g>
	<path d="M0,0v500h500C500,223.853,276.142,0,0,0z"/>
</g>
</g></g><g transform="translate(252,144) scale(0.024,0.024)"><g transform="" style="fill: rgb(42, 17, 75);">
<path d="M500,250c0,58.266,0,250,0,250s-170.194,0-250-0.012c-62.324,0.012-250,0-250,0s0-174.241,0-249.994
	C0.006,111.931,111.929,0,249.994,0C388.064,0,500,111.93,500,250z"/>
</g></g><g transform="translate(276,144) scale(0.024,0.024)"><g transform="" style="fill: rgb(42, 17, 75);">
<g>
	<path d="M500,500V0H0C0.001,276.142,223.853,500,500,500z"/>
</g>
</g></g><g transform="translate(288,144) scale(0.024,0.024)"><g transform="" style="fill: rgb(42, 17, 75);">
<g>
	<path d="M0,0v500h500C500,223.853,276.142,0,0,0z"/>
</g>
</g></g><g transform="translate(24,156) scale(0.024,0.024)"><g transform="" style="fill: rgb(42, 17, 75);">
<path d="M0,250C0,191.729,0,0,0,0s170.201,0,250,0c62.324,0,250,0,250,0s0,174.261,0,250c0,138.064-111.936,250-250,250
	C111.929,500,0,388.064,0,250z"/>
</g></g><g transform="translate(48,156) scale(0.12,0.12)"><g transform="" style="fill: rgb(42, 17, 75);">
<rect width="100" height="100"/>
</g></g><g transform="translate(60,156) scale(0.024,0.024)"><g transform="" style="fill: rgb(42, 17, 75);">
<path d="M250,500c-58.271,0-250,0-250,0s0-170.207,0-250C0,187.676,0,0,0,0s174.261,0,250,0c138.064,0,250,111.929,250,250
	C500,388.064,388.064,500,250,500z"/>
</g></g><g transform="translate(84,156) scale(0.024,0.024)"><g transform="" style="fill: rgb(42, 17, 75);">
<path d="M0,250C0,191.729,0,0,0,0s170.201,0,250,0c62.324,0,250,0,250,0s0,174.261,0,250c0,138.064-111.936,250-250,250
	C111.929,500,0,388.064,0,250z"/>
</g></g><g transform="translate(120,156) scale(0.024,0.024)"><g transform="" style="fill: rgb(42, 17, 75);">
<g>
	<path d="M500,500V0H0C0.001,276.142,223.853,500,500,500z"/>
</g>
</g></g><g transform="translate(132,156) scale(0.12,0.12)"><g transform="" style="fill: rgb(42, 17, 75);">
<rect width="100" height="100"/>
</g></g><g transform="translate(144,156) scale(0.12,0.12)"><g transform="" style="fill: rgb(42, 17, 75);">
<rect width="100" height="100"/>
</g></g><g transform="translate(216,156) scale(0.12,0.12)"><g transform="" style="fill: rgb(42, 17, 75);">
<rect width="100" height="100"/>
</g></g><g transform="translate(252,156) scale(0.024,0.024)"><g transform="" style="fill: rgb(42, 17, 75);">
<path d="M0,250C0,191.729,0,0,0,0s170.201,0,250,0c62.324,0,250,0,250,0s0,174.261,0,250c0,138.064-111.936,250-250,250
	C111.929,500,0,388.064,0,250z"/>
</g></g><g transform="translate(288,156) scale(0.12,0.12)"><g transform="" style="fill: rgb(42, 17, 75);">
<rect width="100" height="100"/>
</g></g><g transform="translate(0,168) scale(0.024,0.024)"><g transform="" style="fill: rgb(42, 17, 75);">
<path d="M250,0c138.077,0,250,111.93,250,250c0,138.077-111.923,250-250,250C111.93,500,0,388.077,0,250C0,111.93,111.93,0,250,0z"
	/>
</g></g><g transform="translate(48,168) scale(0.12,0.12)"><g transform="" style="fill: rgb(42, 17, 75);">
<rect width="100" height="100"/>
</g></g><g transform="translate(72,168) scale(0.024,0.024)"><g transform="" style="fill: rgb(42, 17, 75);">
<path d="M250,0c138.077,0,250,111.93,250,250c0,138.077-111.923,250-250,250C111.93,500,0,388.077,0,250C0,111.93,111.93,0,250,0z"
	/>
</g></g><g transform="translate(96,168) scale(0.024,0.024)"><g transform="" style="fill: rgb(42, 17, 75);">
<path d="M250,0c58.27,0,250,0,250,0s0,170.182,0,250c0,62.305,0,250,0,250s-174.219,0-250,0
	C111.881,500,0,388.021,0,250C0,111.963,111.881,0,250,0z"/>
</g></g><g transform="translate(108,168) scale(0.024,0.024)"><g transform="" style="fill: rgb(42, 17, 75);">
<g>
	<path d="M0,0v500h500C500,223.853,276.142,0,0,0z"/>
</g>
</g></g><g transform="translate(132,168) scale(0.024,0.024)"><g transform="" style="fill: rgb(42, 17, 75);">
<g>
	<path d="M500,500V0H0C0.001,276.142,223.853,500,500,500z"/>
</g>
</g></g><g transform="translate(144,168) scale(0.12,0.12)"><g transform="" style="fill: rgb(42, 17, 75);">
<rect width="100" height="100"/>
</g></g><g transform="translate(156,168) scale(0.024,0.024)"><g transform="" style="fill: rgb(42, 17, 75);">
<g>
	<path d="M0,0v500h500C500,223.853,276.142,0,0,0z"/>
</g>
</g></g><g transform="translate(192,168) scale(0.024,0.024)"><g transform="" style="fill: rgb(42, 17, 75);">
<path d="M250,0c58.27,0,250,0,250,0s0,170.182,0,250c0,62.305,0,250,0,250s-174.219,0-250,0
	C111.881,500,0,388.021,0,250C0,111.963,111.881,0,250,0z"/>
</g></g><g transform="translate(204,168) scale(0.12,0.12)"><g transform="" style="fill: rgb(42, 17, 75);">
<rect width="100" height="100"/>
</g></g><g transform="translate(216,168) scale(0.12,0.12)"><g transform="" style="fill: rgb(42, 17, 75);">
<rect width="100" height="100"/>
</g></g><g transform="translate(228,168) scale(0.024,0.024)"><g transform="" style="fill: rgb(42, 17, 75);">
<path d="M250,500c-58.271,0-250,0-250,0s0-170.207,0-250C0,187.676,0,0,0,0s174.261,0,250,0c138.064,0,250,111.929,250,250
	C500,388.064,388.064,500,250,500z"/>
</g></g><g transform="translate(264,168) scale(0.024,0.024)"><g transform="" style="fill: rgb(42, 17, 75);">
<path d="M250,0c58.27,0,250,0,250,0s0,170.182,0,250c0,62.305,0,250,0,250s-174.219,0-250,0
	C111.881,500,0,388.021,0,250C0,111.963,111.881,0,250,0z"/>
</g></g><g transform="translate(276,168) scale(0.12,0.12)"><g transform="" style="fill: rgb(42, 17, 75);">
<rect width="100" height="100"/>
</g></g><g transform="translate(288,168) scale(0.024,0.024)"><g transform="" style="fill: rgb(42, 17, 75);">
<g>
	<path d="M500,0H0v500C276.142,500,500,276.142,500,0z"/>
</g>
</g></g><g transform="translate(12,180) scale(0.024,0.024)"><g transform="" style="fill: rgb(42, 17, 75);">
<path d="M250,0c138.077,0,250,111.93,250,250c0,138.077-111.923,250-250,250C111.93,500,0,388.077,0,250C0,111.93,111.93,0,250,0z"
	/>
</g></g><g transform="translate(48,180) scale(0.024,0.024)"><g transform="" style="fill: rgb(42, 17, 75);">
<path d="M0,250C0,191.729,0,0,0,0s170.201,0,250,0c62.324,0,250,0,250,0s0,174.261,0,250c0,138.064-111.936,250-250,250
	C111.929,500,0,388.064,0,250z"/>
</g></g><g transform="translate(108,180) scale(0.12,0.12)"><g transform="" style="fill: rgb(42, 17, 75);">
<rect width="100" height="100"/>
</g></g><g transform="translate(144,180) scale(0.12,0.12)"><g transform="" style="fill: rgb(42, 17, 75);">
<rect width="100" height="100"/>
</g></g><g transform="translate(156,180) scale(0.12,0.12)"><g transform="" style="fill: rgb(42, 17, 75);">
<rect width="100" height="100"/>
</g></g><g transform="translate(168,180) scale(0.024,0.024)"><g transform="" style="fill: rgb(42, 17, 75);">
<path d="M250,500c-58.271,0-250,0-250,0s0-170.207,0-250C0,187.676,0,0,0,0s174.261,0,250,0c138.064,0,250,111.929,250,250
	C500,388.064,388.064,500,250,500z"/>
</g></g><g transform="translate(204,180) scale(0.12,0.12)"><g transform="" style="fill: rgb(42, 17, 75);">
<rect width="100" height="100"/>
</g></g><g transform="translate(240,180) scale(0.024,0.024)"><g transform="" style="fill: rgb(42, 17, 75);">
<path d="M500,250c0,58.266,0,250,0,250s-170.194,0-250-0.012c-62.324,0.012-250,0-250,0s0-174.241,0-249.994
	C0.006,111.931,111.929,0,249.994,0C388.064,0,500,111.93,500,250z"/>
</g></g><g transform="translate(276,180) scale(0.024,0.024)"><g transform="" style="fill: rgb(42, 17, 75);">
<path d="M0,250C0,191.729,0,0,0,0s170.201,0,250,0c62.324,0,250,0,250,0s0,174.261,0,250c0,138.064-111.936,250-250,250
	C111.929,500,0,388.064,0,250z"/>
</g></g><g transform="translate(0,192) scale(0.024,0.024)"><g transform="" style="fill: rgb(42, 17, 75);">
<path d="M250,0c138.077,0,250,111.93,250,250c0,138.077-111.923,250-250,250C111.93,500,0,388.077,0,250C0,111.93,111.93,0,250,0z"
	/>
</g></g><g transform="translate(24,192) scale(0.024,0.024)"><g transform="" style="fill: rgb(42, 17, 75);">
<path d="M250,0c58.27,0,250,0,250,0s0,170.182,0,250c0,62.305,0,250,0,250s-174.219,0-250,0
	C111.881,500,0,388.021,0,250C0,111.963,111.881,0,250,0z"/>
</g></g><g transform="translate(36,192) scale(0.024,0.024)"><g transform="" style="fill: rgb(42, 17, 75);">
<path d="M250,500c-58.271,0-250,0-250,0s0-170.207,0-250C0,187.676,0,0,0,0s174.261,0,250,0c138.064,0,250,111.929,250,250
	C500,388.064,388.064,500,250,500z"/>
</g></g><g transform="translate(72,192) scale(0.024,0.024)"><g transform="" style="fill: rgb(42, 17, 75);">
<path d="M250,0c58.27,0,250,0,250,0s0,170.182,0,250c0,62.305,0,250,0,250s-174.219,0-250,0
	C111.881,500,0,388.021,0,250C0,111.963,111.881,0,250,0z"/>
</g></g><g transform="translate(84,192) scale(0.024,0.024)"><g transform="" style="fill: rgb(42, 17, 75);">
<path d="M250,500c-58.271,0-250,0-250,0s0-170.207,0-250C0,187.676,0,0,0,0s174.261,0,250,0c138.064,0,250,111.929,250,250
	C500,388.064,388.064,500,250,500z"/>
</g></g><g transform="translate(108,192) scale(0.024,0.024)"><g transform="" style="fill: rgb(42, 17, 75);">
<path d="M0,250C0,191.729,0,0,0,0s170.201,0,250,0c62.324,0,250,0,250,0s0,174.261,0,250c0,138.064-111.936,250-250,250
	C111.929,500,0,388.064,0,250z"/>
</g></g><g transform="translate(132,192) scale(0.024,0.024)"><g transform="" style="fill: rgb(42, 17, 75);">
<g>
	<path d="M0,500h500V0C223.861,0.001,0,223.854,0,500z"/>
</g>
</g></g><g transform="translate(144,192) scale(0.12,0.12)"><g transform="" style="fill: rgb(42, 17, 75);">
<rect width="100" height="100"/>
</g></g><g transform="translate(156,192) scale(0.12,0.12)"><g transform="" style="fill: rgb(42, 17, 75);">
<rect width="100" height="100"/>
</g></g><g transform="translate(192,192) scale(0.024,0.024)"><g transform="" style="fill: rgb(42, 17, 75);">
<g>
	<path d="M0,500h500V0C223.861,0.001,0,223.854,0,500z"/>
</g>
</g></g><g transform="translate(204,192) scale(0.12,0.12)"><g transform="" style="fill: rgb(42, 17, 75);">
<rect width="100" height="100"/>
</g></g><g transform="translate(216,192) scale(0.12,0.12)"><g transform="" style="fill: rgb(42, 17, 75);">
<rect width="100" height="100"/>
</g></g><g transform="translate(228,192) scale(0.12,0.12)"><g transform="" style="fill: rgb(42, 17, 75);">
<rect width="100" height="100"/>
</g></g><g transform="translate(240,192) scale(0.12,0.12)"><g transform="" style="fill: rgb(42, 17, 75);">
<rect width="100" height="100"/>
</g></g><g transform="translate(252,192) scale(0.024,0.024)"><g transform="" style="fill: rgb(42, 17, 75);">
<g>
	<path d="M0,0v500h500C500,223.853,276.142,0,0,0z"/>
</g>
</g></g><g transform="translate(96,204) scale(0.024,0.024)"><g transform="" style="fill: rgb(42, 17, 75);">
<path d="M250,0c138.077,0,250,111.93,250,250c0,138.077-111.923,250-250,250C111.93,500,0,388.077,0,250C0,111.93,111.93,0,250,0z"
	/>
</g></g><g transform="translate(132,204) scale(0.024,0.024)"><g transform="" style="fill: rgb(42, 17, 75);">
<path d="M0,250C0,191.729,0,0,0,0s170.201,0,250,0c62.324,0,250,0,250,0s0,174.261,0,250c0,138.064-111.936,250-250,250
	C111.929,500,0,388.064,0,250z"/>
</g></g><g transform="translate(156,204) scale(0.12,0.12)"><g transform="" style="fill: rgb(42, 17, 75);">
<rect width="100" height="100"/>
</g></g><g transform="translate(180,204) scale(0.024,0.024)"><g transform="" style="fill: rgb(42, 17, 75);">
<g>
	<path d="M0,500h500V0C223.861,0.001,0,223.854,0,500z"/>
</g>
</g></g><g transform="translate(192,204) scale(0.12,0.12)"><g transform="" style="fill: rgb(42, 17, 75);">
<rect width="100" height="100"/>
</g></g><g transform="translate(240,204) scale(0.12,0.12)"><g transform="" style="fill: rgb(42, 17, 75);">
<rect width="100" height="100"/>
</g></g><g transform="translate(252,204) scale(0.12,0.12)"><g transform="" style="fill: rgb(42, 17, 75);">
<rect width="100" height="100"/>
</g></g><g transform="translate(276,204) scale(0.024,0.024)"><g transform="" style="fill: rgb(42, 17, 75);">
<g>
	<path d="M0,500h500V0C223.861,0.001,0,223.854,0,500z"/>
</g>
</g></g><g transform="translate(288,204) scale(0.024,0.024)"><g transform="" style="fill: rgb(42, 17, 75);">
<g>
	<path d="M0,0v500h500C500,223.853,276.142,0,0,0z"/>
</g>
</g></g><g transform="translate(108,216) scale(0.024,0.024)"><g transform="" style="fill: rgb(42, 17, 75);">
<path d="M500,250c0,58.266,0,250,0,250s-170.194,0-250-0.012c-62.324,0.012-250,0-250,0s0-174.241,0-249.994
	C0.006,111.931,111.929,0,249.994,0C388.064,0,500,111.93,500,250z"/>
</g></g><g transform="translate(144,216) scale(0.024,0.024)"><g transform="" style="fill: rgb(42, 17, 75);">
<path d="M250,0c58.27,0,250,0,250,0s0,170.182,0,250c0,62.305,0,250,0,250s-174.219,0-250,0
	C111.881,500,0,388.021,0,250C0,111.963,111.881,0,250,0z"/>
</g></g><g transform="translate(156,216) scale(0.12,0.12)"><g transform="" style="fill: rgb(42, 17, 75);">
<rect width="100" height="100"/>
</g></g><g transform="translate(168,216) scale(0.12,0.12)"><g transform="" style="fill: rgb(42, 17, 75);">
<rect width="100" height="100"/>
</g></g><g transform="translate(180,216) scale(0.12,0.12)"><g transform="" style="fill: rgb(42, 17, 75);">
<rect width="100" height="100"/>
</g></g><g transform="translate(192,216) scale(0.12,0.12)"><g transform="" style="fill: rgb(42, 17, 75);">
<rect width="100" height="100"/>
</g></g><g transform="translate(216,216) scale(0.024,0.024)"><g transform="" style="fill: rgb(42, 17, 75);">
<path d="M250,0c138.077,0,250,111.93,250,250c0,138.077-111.923,250-250,250C111.93,500,0,388.077,0,250C0,111.93,111.93,0,250,0z"
	/>
</g></g><g transform="translate(240,216) scale(0.12,0.12)"><g transform="" style="fill: rgb(42, 17, 75);">
<rect width="100" height="100"/>
</g></g><g transform="translate(252,216) scale(0.12,0.12)"><g transform="" style="fill: rgb(42, 17, 75);">
<rect width="100" height="100"/>
</g></g><g transform="translate(276,216) scale(0.024,0.024)"><g transform="" style="fill: rgb(42, 17, 75);">
<g>
	<path d="M500,500V0H0C0.001,276.142,223.853,500,500,500z"/>
</g>
</g></g><g transform="translate(288,216) scale(0.024,0.024)"><g transform="" style="fill: rgb(42, 17, 75);">
<g>
	<path d="M500,0H0v500C276.142,500,500,276.142,500,0z"/>
</g>
</g></g><g transform="translate(108,228) scale(0.12,0.12)"><g transform="" style="fill: rgb(42, 17, 75);">
<rect width="100" height="100"/>
</g></g><g transform="translate(120,228) scale(0.024,0.024)"><g transform="" style="fill: rgb(42, 17, 75);">
<path d="M250,500c-58.271,0-250,0-250,0s0-170.207,0-250C0,187.676,0,0,0,0s174.261,0,250,0c138.064,0,250,111.929,250,250
	C500,388.064,388.064,500,250,500z"/>
</g></g><g transform="translate(156,228) scale(0.12,0.12)"><g transform="" style="fill: rgb(42, 17, 75);">
<rect width="100" height="100"/>
</g></g><g transform="translate(192,228) scale(0.12,0.12)"><g transform="" style="fill: rgb(42, 17, 75);">
<rect width="100" height="100"/>
</g></g><g transform="translate(240,228) scale(0.12,0.12)"><g transform="" style="fill: rgb(42, 17, 75);">
<rect width="100" height="100"/>
</g></g><g transform="translate(252,228) scale(0.12,0.12)"><g transform="" style="fill: rgb(42, 17, 75);">
<rect width="100" height="100"/>
</g></g><g transform="translate(96,240) scale(0.024,0.024)"><g transform="" style="fill: rgb(42, 17, 75);">
<path d="M250,0c58.27,0,250,0,250,0s0,170.182,0,250c0,62.305,0,250,0,250s-174.219,0-250,0
	C111.881,500,0,388.021,0,250C0,111.963,111.881,0,250,0z"/>
</g></g><g transform="translate(108,240) scale(0.12,0.12)"><g transform="" style="fill: rgb(42, 17, 75);">
<rect width="100" height="100"/>
</g></g><g transform="translate(144,240) scale(0.024,0.024)"><g transform="" style="fill: rgb(42, 17, 75);">
<g>
	<path d="M0,500h500V0C223.861,0.001,0,223.854,0,500z"/>
</g>
</g></g><g transform="translate(156,240) scale(0.12,0.12)"><g transform="" style="fill: rgb(42, 17, 75);">
<rect width="100" height="100"/>
</g></g><g transform="translate(192,240) scale(0.024,0.024)"><g transform="" style="fill: rgb(42, 17, 75);">
<g>
	<path d="M500,500V0H0C0.001,276.142,223.853,500,500,500z"/>
</g>
</g></g><g transform="translate(204,240) scale(0.12,0.12)"><g transform="" style="fill: rgb(42, 17, 75);">
<rect width="100" height="100"/>
</g></g><g transform="translate(216,240) scale(0.12,0.12)"><g transform="" style="fill: rgb(42, 17, 75);">
<rect width="100" height="100"/>
</g></g><g transform="translate(228,240) scale(0.12,0.12)"><g transform="" style="fill: rgb(42, 17, 75);">
<rect width="100" height="100"/>
</g></g><g transform="translate(240,240) scale(0.12,0.12)"><g transform="" style="fill: rgb(42, 17, 75);">
<rect width="100" height="100"/>
</g></g><g transform="translate(252,240) scale(0.12,0.12)"><g transform="" style="fill: rgb(42, 17, 75);">
<rect width="100" height="100"/>
</g></g><g transform="translate(108,252) scale(0.024,0.024)"><g transform="" style="fill: rgb(42, 17, 75);">
<g>
	<path d="M500,500V0H0C0.001,276.142,223.853,500,500,500z"/>
</g>
</g></g><g transform="translate(120,252) scale(0.024,0.024)"><g transform="" style="fill: rgb(42, 17, 75);">
<path d="M250,500c-58.271,0-250,0-250,0s0-170.207,0-250C0,187.676,0,0,0,0s174.261,0,250,0c138.064,0,250,111.929,250,250
	C500,388.064,388.064,500,250,500z"/>
</g></g><g transform="translate(144,252) scale(0.024,0.024)"><g transform="" style="fill: rgb(42, 17, 75);">
<g>
	<path d="M500,500V0H0C0.001,276.142,223.853,500,500,500z"/>
</g>
</g></g><g transform="translate(156,252) scale(0.12,0.12)"><g transform="" style="fill: rgb(42, 17, 75);">
<rect width="100" height="100"/>
</g></g><g transform="translate(228,252) scale(0.024,0.024)"><g transform="" style="fill: rgb(42, 17, 75);">
<g>
	<path d="M500,500V0H0C0.001,276.142,223.853,500,500,500z"/>
</g>
</g></g><g transform="translate(240,252) scale(0.12,0.12)"><g transform="" style="fill: rgb(42, 17, 75);">
<rect width="100" height="100"/>
</g></g><g transform="translate(252,252) scale(0.12,0.12)"><g transform="" style="fill: rgb(42, 17, 75);">
<rect width="100" height="100"/>
</g></g><g transform="translate(264,252) scale(0.024,0.024)"><g transform="" style="fill: rgb(42, 17, 75);">
<path d="M250,500c-58.271,0-250,0-250,0s0-170.207,0-250C0,187.676,0,0,0,0s174.261,0,250,0c138.064,0,250,111.929,250,250
	C500,388.064,388.064,500,250,500z"/>
</g></g><g transform="translate(96,264) scale(0.024,0.024)"><g transform="" style="fill: rgb(42, 17, 75);">
<path d="M250,0c138.077,0,250,111.93,250,250c0,138.077-111.923,250-250,250C111.93,500,0,388.077,0,250C0,111.93,111.93,0,250,0z"
	/>
</g></g><g transform="translate(156,264) scale(0.12,0.12)"><g transform="" style="fill: rgb(42, 17, 75);">
<rect width="100" height="100"/>
</g></g><g transform="translate(168,264) scale(0.12,0.12)"><g transform="" style="fill: rgb(42, 17, 75);">
<rect width="100" height="100"/>
</g></g><g transform="translate(180,264) scale(0.12,0.12)"><g transform="" style="fill: rgb(42, 17, 75);">
<rect width="100" height="100"/>
</g></g><g transform="translate(192,264) scale(0.024,0.024)"><g transform="" style="fill: rgb(42, 17, 75);">
<g>
	<path d="M0,0v500h500C500,223.853,276.142,0,0,0z"/>
</g>
</g></g><g transform="translate(240,264) scale(0.12,0.12)"><g transform="" style="fill: rgb(42, 17, 75);">
<rect width="100" height="100"/>
</g></g><g transform="translate(288,264) scale(0.024,0.024)"><g transform="" style="fill: rgb(42, 17, 75);">
<path d="M250,0c138.077,0,250,111.93,250,250c0,138.077-111.923,250-250,250C111.93,500,0,388.077,0,250C0,111.93,111.93,0,250,0z"
	/>
</g></g><g transform="translate(108,276) scale(0.024,0.024)"><g transform="" style="fill: rgb(42, 17, 75);">
<path d="M500,250c0,58.266,0,250,0,250s-170.194,0-250-0.012c-62.324,0.012-250,0-250,0s0-174.241,0-249.994
	C0.006,111.931,111.929,0,249.994,0C388.064,0,500,111.93,500,250z"/>
</g></g><g transform="translate(132,276) scale(0.024,0.024)"><g transform="" style="fill: rgb(42, 17, 75);">
<path d="M250,0c58.27,0,250,0,250,0s0,170.182,0,250c0,62.305,0,250,0,250s-174.219,0-250,0
	C111.881,500,0,388.021,0,250C0,111.963,111.881,0,250,0z"/>
</g></g><g transform="translate(144,276) scale(0.12,0.12)"><g transform="" style="fill: rgb(42, 17, 75);">
<rect width="100" height="100"/>
</g></g><g transform="translate(156,276) scale(0.12,0.12)"><g transform="" style="fill: rgb(42, 17, 75);">
<rect width="100" height="100"/>
</g></g><g transform="translate(192,276) scale(0.12,0.12)"><g transform="" style="fill: rgb(42, 17, 75);">
<rect width="100" height="100"/>
</g></g><g transform="translate(204,276) scale(0.12,0.12)"><g transform="" style="fill: rgb(42, 17, 75);">
<rect width="100" height="100"/>
</g></g><g transform="translate(216,276) scale(0.024,0.024)"><g transform="" style="fill: rgb(42, 17, 75);">
<g>
	<path d="M0,0v500h500C500,223.853,276.142,0,0,0z"/>
</g>
</g></g><g transform="translate(240,276) scale(0.024,0.024)"><g transform="" style="fill: rgb(42, 17, 75);">
<g>
	<path d="M500,500V0H0C0.001,276.142,223.853,500,500,500z"/>
</g>
</g></g><g transform="translate(252,276) scale(0.024,0.024)"><g transform="" style="fill: rgb(42, 17, 75);">
<path d="M250,500c-58.271,0-250,0-250,0s0-170.207,0-250C0,187.676,0,0,0,0s174.261,0,250,0c138.064,0,250,111.929,250,250
	C500,388.064,388.064,500,250,500z"/>
</g></g><g transform="translate(276,276) scale(0.024,0.024)"><g transform="" style="fill: rgb(42, 17, 75);">
<path d="M500,250c0,58.266,0,250,0,250s-170.194,0-250-0.012c-62.324,0.012-250,0-250,0s0-174.241,0-249.994
	C0.006,111.931,111.929,0,249.994,0C388.064,0,500,111.93,500,250z"/>
</g></g><g transform="translate(96,288) scale(0.024,0.024)"><g transform="" style="fill: rgb(42, 17, 75);">
<path d="M250,0c58.27,0,250,0,250,0s0,170.182,0,250c0,62.305,0,250,0,250s-174.219,0-250,0
	C111.881,500,0,388.021,0,250C0,111.963,111.881,0,250,0z"/>
</g></g><g transform="translate(108,288) scale(0.024,0.024)"><g transform="" style="fill: rgb(42, 17, 75);">
<g>
	<path d="M500,0H0v500C276.142,500,500,276.142,500,0z"/>
</g>
</g></g><g transform="translate(156,288) scale(0.024,0.024)"><g transform="" style="fill: rgb(42, 17, 75);">
<path d="M0,250C0,191.729,0,0,0,0s170.201,0,250,0c62.324,0,250,0,250,0s0,174.261,0,250c0,138.064-111.936,250-250,250
	C111.929,500,0,388.064,0,250z"/>
</g></g><g transform="translate(180,288) scale(0.024,0.024)"><g transform="" style="fill: rgb(42, 17, 75);">
<path d="M250,0c58.27,0,250,0,250,0s0,170.182,0,250c0,62.305,0,250,0,250s-174.219,0-250,0
	C111.881,500,0,388.021,0,250C0,111.963,111.881,0,250,0z"/>
</g></g><g transform="translate(192,288) scale(0.024,0.024)"><g transform="" style="fill: rgb(42, 17, 75);">
<g>
	<path d="M500,0H0v500C276.142,500,500,276.142,500,0z"/>
</g>
</g></g><g transform="translate(216,288) scale(0.024,0.024)"><g transform="" style="fill: rgb(42, 17, 75);">
<g>
	<path d="M500,500V0H0C0.001,276.142,223.853,500,500,500z"/>
</g>
</g></g><g transform="translate(228,288) scale(0.024,0.024)"><g transform="" style="fill: rgb(42, 17, 75);">
<path d="M250,500c-58.271,0-250,0-250,0s0-170.207,0-250C0,187.676,0,0,0,0s174.261,0,250,0c138.064,0,250,111.929,250,250
	C500,388.064,388.064,500,250,500z"/>
</g></g><g transform="translate(276,288) scale(0.024,0.024)"><g transform="" style="fill: rgb(42, 17, 75);">
<g>
	<path d="M500,500V0H0C0.001,276.142,223.853,500,500,500z"/>
</g>
</g></g><g transform="translate(288,288) scale(0.024,0.024)"><g transform="" style="fill: rgb(42, 17, 75);">
<path d="M250,500c-58.271,0-250,0-250,0s0-170.207,0-250C0,187.676,0,0,0,0s174.261,0,250,0c138.064,0,250,111.929,250,250
	C500,388.064,388.064,500,250,500z"/>
</g></g><g transform="translate(0,0) scale(0.84, 0.84)"><g transform=" translate(100, 0) scale(-1,1) " style="fill: rgb(42, 17, 75);">
<g>
	<path style="fill:none;" d="M85,66.221V33.75C85,23.411,76.414,15,65.859,15H34.14C23.586,15,15,23.411,15,33.75v51.246
		l50.855-0.016C76.414,84.98,85,76.564,85,66.221z"/>
	<path d="M100,66.221V33.75C100,15.141,84.68,0,65.859,0H34.14C15.32,0,0,15.141,0,33.75V100l65.859-0.02
		C84.68,99.98,100,84.84,100,66.221z M85,66.221c0,10.344-8.586,18.76-19.145,18.76L15,84.996V33.75C15,23.411,23.586,15,34.14,15
		h31.719C76.414,15,85,23.411,85,33.75V66.221z"/>
</g>
</g></g><g transform="translate(216,0) scale(0.84, 0.84)"><g transform="" style="fill: rgb(42, 17, 75);">
<g>
	<path style="fill:none;" d="M85,66.221V33.75C85,23.411,76.414,15,65.859,15H34.14C23.586,15,15,23.411,15,33.75v51.246
		l50.855-0.016C76.414,84.98,85,76.564,85,66.221z"/>
	<path d="M100,66.221V33.75C100,15.141,84.68,0,65.859,0H34.14C15.32,0,0,15.141,0,33.75V100l65.859-0.02
		C84.68,99.98,100,84.84,100,66.221z M85,66.221c0,10.344-8.586,18.76-19.145,18.76L15,84.996V33.75C15,23.411,23.586,15,34.14,15
		h31.719C76.414,15,85,23.411,85,33.75V66.221z"/>
</g>
</g></g><g transform="translate(0,216) scale(0.84, 0.84)"><g transform=" translate(100, 0) scale(-1,1)  translate(0,100) scale(1,-1) " style="fill: rgb(42, 17, 75);">
<g>
	<path style="fill:none;" d="M85,66.221V33.75C85,23.411,76.414,15,65.859,15H34.14C23.586,15,15,23.411,15,33.75v51.246
		l50.855-0.016C76.414,84.98,85,76.564,85,66.221z"/>
	<path d="M100,66.221V33.75C100,15.141,84.68,0,65.859,0H34.14C15.32,0,0,15.141,0,33.75V100l65.859-0.02
		C84.68,99.98,100,84.84,100,66.221z M85,66.221c0,10.344-8.586,18.76-19.145,18.76L15,84.996V33.75C15,23.411,23.586,15,34.14,15
		h31.719C76.414,15,85,23.411,85,33.75V66.221z"/>
</g>
</g></g><g transform="translate(24,24) scale(0.36, 0.36)"><g transform="" style="fill: rgb(42, 17, 75);">
<rect width="100" height="100"/>
</g></g><g transform="translate(240,24) scale(0.36, 0.36)"><g transform="" style="fill: rgb(42, 17, 75);">
<rect width="100" height="100"/>
</g></g><g transform="translate(24,240) scale(0.36, 0.36)"><g transform="" style="fill: rgb(42, 17, 75);">
<rect width="100" height="100"/>
</g></g></g></svg>