<svg width="75" height="75" viewBox="0 0 75 75" fill="none" xmlns="http://www.w3.org/2000/svg">
<path d="M70.1039 55.851C73.2411 50.3657 75 44.1006 75 37.4456C75 30.7906 73.2411 24.4258 70.1039 19.0402C70.0042 18.8408 69.9045 18.7501 69.8138 18.6503C63.3492 7.58881 51.3087 0.14502 37.5 0.14502C23.7911 0.14502 11.7504 7.58881 5.18617 18.6502C5.0864 18.75 4.98675 18.9403 4.89606 19.0401C1.75891 24.4256 0 30.6907 0 37.4455C0 58.1085 16.7463 74.8548 37.4093 74.8548C51.1182 74.8548 63.1589 67.411 69.7231 56.3496C69.9045 56.1411 70.0042 56.0414 70.1039 55.851ZM3.80806 39.2044H16.4471C16.6465 44.1005 17.6258 48.8967 19.1853 53.4029H7.72483C5.47627 49.0872 4.10724 44.2909 3.80806 39.2044ZM7.72483 21.479H19.1852C17.5168 25.9852 16.6374 30.6817 16.447 35.5777H3.80806C4.10724 30.4823 5.47627 25.686 7.72483 21.479ZM71.2826 35.5777H58.8431C58.6437 30.6817 57.6644 25.9852 56.1049 21.479H67.3659C69.6144 25.686 70.9835 30.4823 71.2826 35.5777ZM55.2164 35.5777H39.3496V21.479H52.179C53.9471 25.8854 55.026 30.582 55.2164 35.5777ZM39.3587 17.8523V4.14342C44.0552 7.96055 47.8814 12.5664 50.5198 17.7525H39.3587V17.8523ZM35.732 4.34283V17.7616H24.7613C27.4087 12.6661 31.1351 8.15996 35.732 4.34283ZM35.732 21.479V35.5777H20.0647C20.2641 30.6817 21.3341 25.8854 23.1021 21.479H35.732ZM20.0647 39.2044H35.732V53.4029H23.1021C21.3431 48.8967 20.2641 44.1005 20.0647 39.2044ZM35.732 57.0205V70.4393C31.1261 66.7219 27.4087 62.116 24.7613 57.0205H35.732ZM39.3587 70.6298V57.0205H50.5198C47.7816 62.2158 44.0552 66.8126 39.3587 70.6298ZM39.3587 53.4029V39.2044H55.2254C55.026 44.2002 53.956 48.9965 52.188 53.4029H39.3587ZM58.8431 39.2044H71.2828C70.9926 44.2999 69.6144 49.1959 67.2662 53.4029H56.1051C57.6644 48.8967 58.6436 44.1005 58.8431 39.2044ZM65.1082 17.8523H54.5364C52.2878 12.9562 49.051 8.35042 45.1341 4.5333C53.258 6.40105 60.3119 11.1973 65.1082 17.8523ZM30.2467 4.4426C26.2301 8.35937 23.1021 12.8656 20.7448 17.8614H9.98246C14.7787 11.0976 21.9234 6.20151 30.2467 4.4426ZM9.98246 57.0205H20.654C23.0023 62.0163 26.1393 66.5224 30.1559 70.4393C21.9234 68.5806 14.7787 63.6847 9.98246 57.0205ZM45.1341 70.3397C49.0509 66.4229 52.2787 61.9167 54.5364 57.0206H65.0175C60.3119 63.5849 53.258 68.481 45.1341 70.3397Z" fill="black"/>
</svg>
